<?xml version="1.0" encoding="UTF-8"?>
<!-- Generator: Adobe Illustrator 28.2.0, SVG Export Plug-In . SVG Version: 6.00 Build 0)  -->
<svg xmlns="http://www.w3.org/2000/svg" xmlns:xlink="http://www.w3.org/1999/xlink" version="1.1" id="Layer_1" x="0px" y="0px" viewBox="0 0 243 84" style="enable-background:new 0 0 243 84;" xml:space="preserve">
<style type="text/css">
	.st0{fill:none;}
	.st1{fill:#FFFFFF;}
	.st2{fill-rule:evenodd;clip-rule:evenodd;fill:#0A0A0A;}
</style>
<rect class="st0" width="243" height="84"></rect>
<rect x="-222" y="-143" class="st1" width="243" height="84"></rect>
<g>
	<path class="st1" d="M52.6,0H31.4C14,0,0,14,0,31.4v21.2C0,70,14,84,31.4,84h21.2C70,84,84,70,84,52.6V31.4C84,14,70,0,52.6,0z"></path>
	<path class="st2" d="M64.1,28.9c6.5,6.5,6.5,17.2,0,23.8L56.8,60H46l12.7-12.7c3.5-3.6,3.5-9.4,0-12.9c-3.5-3.6-9.3-3.6-12.8,0   l-7.8,7.6l-2.8,2.9c-1.5,1.5-3.8,1.5-5.3,0c-1.5-1.5-1.6-4-0.1-5.5l1.9-2.1l8.6-8.3C46.9,22.4,57.6,22.4,64.1,28.9z M38,24   L25.3,36.7c-3.5,3.6-3.5,9.4,0,12.9c3.5,3.6,9.3,3.6,12.8,0l7.8-7.6l2.8-2.9c1.5-1.5,3.8-1.5,5.3,0c1.5,1.5,1.6,4,0.1,5.5l-1.9,2.1   l-8.6,8.3c-6.5,6.6-17.2,6.6-23.7,0c-6.5-6.5-6.5-17.2,0-23.8l7.3-7.3H38z"></path>
	<path class="st1" d="M242.9,45.7c0,0.7,0,1.4-0.1,2h-17.2c0.4,4.5,3.1,7.3,7,7.3c2.7,0,4.6-1.1,6-3.9l3.7,1.3c-1.7,4-5.1,6-9.7,6   c-7,0-11.3-5.3-11.3-12.2s4.2-12.2,11.2-12.2C238.7,34.1,242.9,38.4,242.9,45.7z M232.5,37.5c-3.8,0-6.4,2.6-6.9,6.9H239   C238.6,40,236.1,37.5,232.5,37.5z"></path>
	<path class="st1" d="M208.8,67.7c-5.3,0-9.3-2.3-10.7-6.3l3.8-1.4c1,2.9,3.4,4.3,6.9,4.3c3.9,0,6.3-2.1,6.3-6.2v-4.9h-0.3   c-1.6,2.8-4.1,4.4-7.7,4.4c-6,0-9.9-4.7-9.9-11.7s3.9-11.7,9.9-11.7c3.5,0,6.1,1.6,7.7,4.4h0.3l0.5-3.9h3.9   c-0.2,4.2-0.2,8-0.2,12.1v11.6C219.2,63.9,215.5,67.7,208.8,67.7z M208.2,53.9c4.2,0,6.9-3.4,6.9-8.1s-2.7-8-6.9-8   c-4.2,0-6.9,3.3-6.9,8.1S204,53.9,208.2,53.9z"></path>
	<path class="st1" d="M178.5,58h-4.1V47.1c0-4.2,0-8.3-0.2-12.5h3.9l0.5,3.9h0.3c1.7-2.8,4.6-4.4,7.8-4.4c5.4,0,8.7,3.2,8.7,10.1V58   h-4.1V44.4c0-4.5-2.1-6.7-5.7-6.7c-4.2,0-7,3.3-7,7.4V58z"></path>
	<path class="st1" d="M169.1,31.3c-1.7,0-3.1-1.3-3.1-3s1.4-3,3.1-3s3.1,1.3,3.1,3S170.8,31.3,169.1,31.3z M171.1,58H167V34.5h4.1   V58z"></path>
	<path class="st1" d="M163.9,42.3v3.2c0,4.2,0,8.3,0.2,12.5h-3.4l-0.5-4.2h-0.3c-1.5,2.9-4.2,4.7-8,4.7c-4.6,0-7.6-2.8-7.6-6.9   c0-4.5,3.2-7.2,9.8-7.6l5.8-0.3v-1.2c0-3.4-2.4-4.9-5.5-4.9c-3.3,0-5.3,1.6-6.3,4.5l-3.6-1.3c1.1-4.4,5.1-6.7,9.9-6.7   C160.3,34.1,163.9,37.1,163.9,42.3z M152.6,54.9c4,0,7.2-3.4,7.3-8l-5.2,0.3c-4,0.3-6.5,1.4-6.5,4.1   C148.3,53.6,149.9,54.9,152.6,54.9z"></path>
	<path class="st1" d="M133.6,34.1c5.4,0,8.7,3.2,8.7,10.1V58h-4.1V44.4c0-4.5-2.1-6.7-5.7-6.7c-4.2,0-7,3.3-7,7.4V58h-4.1V25.8h4.1   v7.3l-0.2,5.4h0.5C127.5,35.6,130.4,34.1,133.6,34.1z"></path>
	<path class="st1" d="M109.3,58.5c-7,0-11.3-5.3-11.3-12.2s4.3-12.2,11.3-12.2c4.6,0,8.4,2.3,9.9,7.1l-4,1.4c-1.2-3.4-3.3-4.8-6-4.8   c-4.3,0-7.1,3.4-7.1,8.5s2.9,8.5,7.1,8.5c2.7,0,4.9-1.5,6.2-4.8l4,1.4C117.9,56.2,113.8,58.5,109.3,58.5z"></path>
</g>
</svg>
